<?xml version="1.0" encoding="utf-8"?>
<!-- Generator: Adobe Illustrator 27.7.0, SVG Export Plug-In . SVG Version: 6.00 Build 0)  -->
<svg version="1.1" id="Ebene_1" xmlns="http://www.w3.org/2000/svg" xmlns:xlink="http://www.w3.org/1999/xlink" x="0px" y="0px"
	 viewBox="0 0 512 512" style="enable-background:new 0 0 512 512;" xml:space="preserve">
<g>
	<g>
		<g>
			<path d="M33.8,251.13v-12.01h72.93v12.01H33.8z"/>
			<path d="M111.6,255.99H28.94v-21.74h82.66V255.99z M38.67,246.27h63.2v-2.28h-63.2V246.27z"/>
		</g>
		<g>
			<path d="M145.99,123.32l48.36,125.74h-13.28l-48.36-125.74H145.99z"/>
			<path d="M202.31,254.53H177.3l-52.57-136.69h25.01L202.31,254.53z M184.82,243.59h1.56l-44.15-114.8h-1.56L184.82,243.59z"/>
		</g>
		<g>
			<path d="M250.14,270.77V123.32h11.85v147.45H250.14z"/>
			<path d="M267.77,276.55h-23.4V117.54h23.4V276.55z M255.92,265h0.3V129.1h-0.3V265z"/>
		</g>
		<g>
			<path d="M320.1,249.06l48.36-125.74h13.12L333.3,249.06H320.1z"/>
			<path d="M337.06,254.53h-24.93l52.56-136.69h24.85L337.06,254.53z M328.07,243.59h1.47l44.07-114.8h-1.4L328.07,243.59z"/>
		</g>
		<g>
			<path d="M405.24,251.13v-12.01h72.93v12.01H405.24z"/>
			<path d="M483.04,255.99h-82.66v-21.74h82.66V255.99z M410.11,246.27h63.2v-2.28h-63.2V246.27z"/>
		</g>
	</g>
	<g>
		<path d="M257.37,314.19v28.75h-3.99v-28.75h-9.97v-3.5h23.92v3.5H257.37z"/>
		<path d="M293.41,332.19c-0.18,1.17-0.47,2.3-0.85,3.39c-0.38,1.09-0.87,2.11-1.47,3.05c-0.6,0.94-1.31,1.77-2.13,2.47
			c-0.82,0.71-1.77,1.26-2.84,1.67c-1.07,0.4-2.26,0.61-3.59,0.61c-1.33,0-2.52-0.2-3.59-0.61c-1.07-0.4-2.01-0.96-2.84-1.67
			c-0.82-0.71-1.54-1.53-2.14-2.48c-0.6-0.95-1.1-1.97-1.48-3.06c-0.4-1.09-0.69-2.22-0.88-3.38c-0.19-1.16-0.29-2.32-0.31-3.47
			v-3.67c0.01-1.15,0.11-2.31,0.3-3.48c0.18-1.17,0.48-2.3,0.87-3.39c0.38-1.09,0.87-2.11,1.47-3.06c0.6-0.95,1.31-1.79,2.13-2.51
			c0.82-0.71,1.77-1.26,2.84-1.67c1.07-0.4,2.26-0.61,3.59-0.61c1.33,0,2.52,0.2,3.6,0.61c1.07,0.4,2.02,0.96,2.85,1.67
			c0.82,0.71,1.53,1.54,2.13,2.49c0.6,0.95,1.09,1.97,1.49,3.06c0.38,1.09,0.67,2.22,0.85,3.4s0.28,2.34,0.3,3.49v3.67
			C293.7,329.86,293.6,331.02,293.41,332.19z M289.52,322.6c-0.09-0.83-0.24-1.66-0.44-2.49c-0.22-0.81-0.51-1.59-0.86-2.33
			s-0.8-1.4-1.33-1.98c-0.53-0.56-1.16-1-1.88-1.34c-0.72-0.33-1.56-0.5-2.52-0.5c-0.94,0-1.78,0.17-2.5,0.51
			c-0.72,0.34-1.35,0.79-1.88,1.35c-0.53,0.57-0.97,1.23-1.33,1.98c-0.35,0.74-0.63,1.52-0.84,2.33c-0.22,0.82-0.38,1.65-0.48,2.48
			c-0.1,0.83-0.15,1.62-0.17,2.38v3.71c0.01,0.75,0.07,1.55,0.17,2.38c0.1,0.84,0.25,1.67,0.48,2.48c0.22,0.82,0.51,1.61,0.86,2.36
			c0.35,0.75,0.8,1.41,1.33,1.97c0.53,0.57,1.16,1.03,1.88,1.37c0.72,0.34,1.56,0.51,2.52,0.51c0.96,0,1.8-0.17,2.53-0.51
			c0.73-0.34,1.36-0.79,1.89-1.37c0.52-0.56,0.95-1.21,1.29-1.95c0.35-0.74,0.63-1.53,0.85-2.35c0.21-0.81,0.35-1.63,0.43-2.47
			c0.08-0.84,0.13-1.64,0.14-2.41V325C289.66,324.23,289.6,323.44,289.52,322.6z"/>
		<path d="M304.4,342.94h-4.09v-32.16h10.43c1.44,0.03,2.81,0.26,4.1,0.69c1.29,0.43,2.42,1.05,3.39,1.86
			c0.97,0.81,1.74,1.81,2.31,3c0.57,1.19,0.85,2.56,0.85,4.11c0,1.55-0.28,2.91-0.85,4.1c-0.57,1.19-1.34,2.18-2.31,2.99
			s-2.1,1.43-3.39,1.86c-1.29,0.43-2.65,0.65-4.1,0.66h-6.34V342.94z M310.74,326.68c0.94-0.01,1.81-0.17,2.61-0.45
			c0.8-0.29,1.49-0.7,2.08-1.23c0.59-0.53,1.05-1.17,1.38-1.93c0.33-0.76,0.5-1.62,0.5-2.6c0-0.97-0.17-1.85-0.5-2.63
			c-0.33-0.78-0.78-1.44-1.36-1.99c-0.59-0.54-1.29-0.96-2.09-1.26c-0.8-0.29-1.68-0.45-2.62-0.46h-6.34v12.55H310.74z"/>
		<path d="M347.44,339.47v3.47h-19.81v-32.16h4.09v28.7H347.44z"/>
		<path d="M358.86,334.61l-2.59,8.33h-4.09l10.38-32.16h3.42l10.21,32.16h-4.07l-2.54-8.33H358.86z M368.51,331.05l-4.24-13.96
			l-4.31,13.96H368.51z"/>
		<path d="M385.85,342.94h-4.09v-32.16h10.43c1.44,0.03,2.81,0.26,4.1,0.69c1.29,0.43,2.42,1.05,3.39,1.86
			c0.97,0.81,1.74,1.81,2.31,3c0.57,1.19,0.85,2.56,0.85,4.11c0,1.55-0.28,2.91-0.85,4.1s-1.34,2.18-2.31,2.99
			c-0.97,0.81-2.1,1.43-3.39,1.86c-1.29,0.43-2.65,0.65-4.1,0.66h-6.34V342.94z M392.19,326.68c0.94-0.01,1.81-0.17,2.61-0.45
			c0.79-0.29,1.49-0.7,2.08-1.23c0.59-0.53,1.05-1.17,1.38-1.93c0.33-0.76,0.5-1.62,0.5-2.6c0-0.97-0.17-1.85-0.5-2.63
			c-0.33-0.78-0.79-1.44-1.36-1.99c-0.59-0.54-1.29-0.96-2.09-1.26c-0.8-0.29-1.68-0.45-2.62-0.46h-6.34v12.55H392.19z"/>
		<path d="M249.7,383.15v10.87h-4.18v-32.16h4.18v15.71l3.11-3.89l9.43-11.82h4.97l-11.24,14.07l12,18.09H263l-9.72-14.93
			L249.7,383.15z"/>
		<path d="M288.04,392.86c-0.1-0.46-0.17-0.95-0.21-1.45c-0.41,0.41-0.87,0.8-1.38,1.17c-0.51,0.37-1.06,0.69-1.67,0.97
			c-0.62,0.28-1.27,0.5-1.97,0.66c-0.69,0.16-1.43,0.24-2.21,0.24c-1.27,0-2.41-0.18-3.43-0.55c-1.02-0.37-1.89-0.87-2.6-1.5
			c-0.72-0.62-1.28-1.36-1.67-2.22s-0.59-1.79-0.59-2.79c0-1.31,0.26-2.46,0.78-3.45c0.52-0.99,1.26-1.81,2.22-2.47
			c0.96-0.65,2.11-1.13,3.46-1.46c1.35-0.32,2.85-0.49,4.52-0.49h4.46v-1.88c0-0.72-0.13-1.37-0.4-1.94
			c-0.26-0.57-0.64-1.07-1.13-1.48c-0.49-0.4-1.08-0.71-1.78-0.93c-0.7-0.22-1.48-0.33-2.35-0.33c-0.81,0-1.54,0.1-2.18,0.31
			c-0.64,0.21-1.18,0.48-1.62,0.82s-0.78,0.74-1.03,1.2c-0.24,0.46-0.36,0.95-0.36,1.45h-4.11c0.01-0.87,0.24-1.72,0.67-2.56
			c0.43-0.84,1.06-1.6,1.89-2.28c0.81-0.66,1.8-1.2,2.97-1.61c1.17-0.41,2.5-0.62,3.99-0.62c1.35,0,2.61,0.17,3.78,0.5
			c1.16,0.33,2.17,0.83,3.03,1.49c0.84,0.68,1.5,1.52,1.99,2.52c0.49,1,0.73,2.17,0.73,3.51v11.11c0,0.8,0.07,1.64,0.22,2.53
			c0.15,0.89,0.35,1.67,0.62,2.33v0.35h-4.26C288.26,393.71,288.14,393.32,288.04,392.86z M283.43,390.59
			c0.69-0.21,1.33-0.48,1.9-0.82c0.56-0.34,1.05-0.73,1.46-1.16c0.41-0.43,0.74-0.89,0.97-1.36v-4.84h-3.8
			c-1.41,0-2.65,0.12-3.7,0.36c-1.05,0.24-1.89,0.62-2.51,1.12c-0.44,0.35-0.78,0.77-1,1.26c-0.23,0.49-0.34,1.04-0.34,1.66
			c0,0.59,0.1,1.13,0.3,1.64c0.2,0.5,0.5,0.93,0.89,1.28c0.4,0.37,0.9,0.65,1.5,0.86c0.6,0.21,1.3,0.31,2.1,0.31
			S282.74,390.8,283.43,390.59z"/>
		<path d="M317.88,369.83c0.82,0.1,1.43,0.24,1.85,0.42l-0.55,4c-0.8-0.18-1.55-0.31-2.26-0.39c-0.71-0.08-1.46-0.12-2.24-0.12
			c-1,0-1.91,0.12-2.72,0.36c-0.81,0.24-1.52,0.6-2.12,1.07c-0.55,0.41-1.02,0.92-1.43,1.51c-0.4,0.6-0.74,1.26-1,2v15.33h-4.11
			v-23.9h3.89l0.18,3.2l0.02,0.6c0.97-1.31,2.14-2.35,3.5-3.1c1.36-0.76,2.91-1.14,4.65-1.14
			C316.28,369.67,317.07,369.72,317.88,369.83z"/>
		<path d="M339.87,360.08v30.4h7.8v3.53h-20.01v-3.53h8.13v-26.84h-8.13v-3.56H339.87z"/>
		<path d="M369.76,386.36c-0.19-0.39-0.52-0.75-0.97-1.07c-0.46-0.32-1.06-0.62-1.81-0.89c-0.75-0.27-1.69-0.52-2.81-0.74
			c-1.37-0.28-2.62-0.62-3.74-1.02c-1.13-0.4-2.09-0.88-2.88-1.44c-0.81-0.55-1.44-1.19-1.88-1.93c-0.44-0.74-0.66-1.61-0.66-2.6
			c0-0.97,0.23-1.88,0.69-2.73c0.46-0.85,1.1-1.59,1.92-2.22c0.83-0.63,1.81-1.13,2.95-1.5s2.4-0.55,3.77-0.55
			c1.47,0,2.8,0.19,3.98,0.57c1.18,0.38,2.18,0.91,3,1.59c0.83,0.68,1.46,1.47,1.91,2.37c0.45,0.91,0.67,1.88,0.67,2.93h-4.09
			c0-0.52-0.13-1.02-0.4-1.51c-0.27-0.49-0.63-0.93-1.1-1.31c-0.47-0.38-1.04-0.69-1.71-0.93c-0.67-0.24-1.43-0.35-2.26-0.35
			c-0.87,0-1.63,0.1-2.29,0.29c-0.66,0.19-1.2,0.45-1.62,0.77c-0.44,0.32-0.77,0.7-0.99,1.13c-0.22,0.43-0.33,0.87-0.33,1.33
			c0,0.47,0.09,0.89,0.27,1.26c0.18,0.37,0.49,0.7,0.93,0.99c0.43,0.29,1,0.56,1.73,0.79c0.73,0.24,1.65,0.46,2.77,0.69
			c1.47,0.31,2.79,0.67,3.95,1.07c1.16,0.4,2.14,0.89,2.94,1.45c0.8,0.57,1.4,1.24,1.82,1.99c0.42,0.75,0.63,1.62,0.63,2.61
			c0,1.06-0.24,2.02-0.72,2.89c-0.48,0.87-1.15,1.61-2,2.23c-0.85,0.62-1.88,1.1-3.07,1.44c-1.19,0.34-2.5,0.51-3.91,0.51
			c-1.62,0-3.06-0.22-4.33-0.65c-1.27-0.43-2.33-1.01-3.2-1.73c-0.88-0.71-1.56-1.53-2.02-2.47c-0.46-0.94-0.7-1.92-0.7-2.94h4.09
			c0.06,0.84,0.28,1.55,0.67,2.12c0.39,0.57,0.88,1.04,1.47,1.39c0.57,0.35,1.21,0.6,1.92,0.75c0.71,0.15,1.41,0.22,2.1,0.22
			c1.09,0,2.04-0.13,2.85-0.39c0.81-0.26,1.44-0.61,1.9-1.07c0.28-0.28,0.49-0.59,0.64-0.93c0.15-0.34,0.22-0.7,0.22-1.08
			C370.05,387.19,369.95,386.75,369.76,386.36z"/>
		<path d="M399.33,369.83c0.82,0.1,1.43,0.24,1.85,0.42l-0.55,4c-0.8-0.18-1.55-0.31-2.26-0.39c-0.71-0.08-1.46-0.12-2.24-0.12
			c-1,0-1.91,0.12-2.72,0.36c-0.81,0.24-1.52,0.6-2.12,1.07c-0.55,0.41-1.02,0.92-1.43,1.51c-0.4,0.6-0.74,1.26-1,2v15.33h-4.11
			v-23.9h3.89l0.18,3.2l0.02,0.6c0.97-1.31,2.14-2.35,3.5-3.1c1.36-0.76,2.91-1.14,4.65-1.14
			C397.73,369.67,398.51,369.72,399.33,369.83z"/>
		<path d="M423.97,390.72c-0.8,1.18-1.79,2.1-2.98,2.75c-1.19,0.66-2.57,0.98-4.13,0.98c-1.25,0-2.39-0.19-3.4-0.59
			c-1.02-0.39-1.88-1-2.61-1.82c-0.72-0.83-1.28-1.87-1.67-3.15c-0.39-1.27-0.59-2.8-0.59-4.58v-14.2h4.09v14.25
			c0,1.3,0.1,2.37,0.31,3.22c0.21,0.86,0.52,1.53,0.93,2.03c0.41,0.52,0.92,0.88,1.51,1.08c0.6,0.21,1.29,0.31,2.07,0.31
			c0.91,0,1.73-0.11,2.45-0.32c0.72-0.21,1.35-0.51,1.88-0.9c0.44-0.31,0.83-0.68,1.16-1.12c0.33-0.43,0.61-0.91,0.83-1.43v-17.14
			h4.11v23.9h-3.71L423.97,390.72z"/>
		<path d="M440.78,372.33c0.4-0.4,0.82-0.76,1.26-1.07c0.71-0.52,1.48-0.91,2.33-1.17c0.85-0.26,1.75-0.4,2.71-0.42
			c1.25,0,2.39,0.18,3.41,0.54c1.02,0.36,1.9,0.93,2.62,1.69c0.72,0.77,1.28,1.74,1.67,2.9c0.39,1.17,0.59,2.56,0.59,4.16v15.04
			h-4.09v-15.09c0-0.94-0.11-1.77-0.33-2.48c-0.22-0.71-0.55-1.31-0.97-1.78c-0.46-0.52-1.03-0.9-1.72-1.16
			c-0.69-0.26-1.49-0.38-2.39-0.36c-0.74,0-1.44,0.1-2.1,0.31c-0.66,0.21-1.27,0.5-1.83,0.88c-0.44,0.3-0.85,0.64-1.23,1.03
			c-0.38,0.39-0.71,0.82-1,1.29v17.36h-4.09v-33.93h4.09v13.59C440.02,373.18,440.38,372.74,440.78,372.33z"/>
		<path d="M468.69,393.6c-1.41-0.57-2.61-1.38-3.61-2.41c-1-1.03-1.78-2.25-2.34-3.67c-0.56-1.41-0.84-2.95-0.84-4.62v-0.93
			c0-1.93,0.31-3.66,0.93-5.18c0.62-1.52,1.44-2.82,2.47-3.88c1.02-1.05,2.18-1.85,3.48-2.41c1.3-0.56,2.64-0.84,4.01-0.84
			c1.72,0,3.23,0.3,4.52,0.89s2.36,1.42,3.21,2.46c0.85,1.06,1.49,2.31,1.91,3.73c0.42,1.43,0.63,2.98,0.63,4.64v1.83h-17.08v0.15
			c0.1,1.16,0.33,2.19,0.7,3.07c0.36,0.88,0.86,1.66,1.49,2.34c0.65,0.72,1.43,1.29,2.34,1.7c0.91,0.41,1.92,0.62,3.03,0.62
			c1.46,0,2.75-0.29,3.89-0.88c1.13-0.59,2.08-1.37,2.83-2.34l2.5,1.94c-0.79,1.21-1.98,2.28-3.57,3.21s-3.54,1.4-5.86,1.4
			C471.64,394.46,470.1,394.17,468.69,393.6z M470.45,373.48c-0.74,0.3-1.4,0.74-1.99,1.31c-0.59,0.59-1.09,1.31-1.49,2.15
			c-0.4,0.85-0.69,1.82-0.85,2.93h12.86v-0.2c0-0.74-0.14-1.53-0.42-2.38c-0.28-0.85-0.67-1.58-1.17-2.2
			c-0.5-0.62-1.13-1.12-1.89-1.5c-0.76-0.38-1.66-0.57-2.71-0.57C471.96,373.03,471.18,373.18,470.45,373.48z"/>
	</g>
</g>
</svg>
