<?xml version="1.0" encoding="UTF-8" standalone="no"?>
<!-- Created with Inkscape (http://www.inkscape.org/) -->
<svg
   xmlns:dc="http://purl.org/dc/elements/1.1/"
   xmlns:cc="http://web.resource.org/cc/"
   xmlns:rdf="http://www.w3.org/1999/02/22-rdf-syntax-ns#"
   xmlns:svg="http://www.w3.org/2000/svg"
   xmlns="http://www.w3.org/2000/svg"
   xmlns:sodipodi="http://sodipodi.sourceforge.net/DTD/sodipodi-0.dtd"
   xmlns:inkscape="http://www.inkscape.org/namespaces/inkscape"
   width="744.09448819"
   height="1052.3622047"
   id="svg7672"
   sodipodi:version="0.32"
   inkscape:version="0.45"
   sodipodi:modified="true">
  <defs
     id="defs7674" />
  <sodipodi:namedview
     id="base"
     pagecolor="#ffffff"
     bordercolor="#666666"
     borderopacity="1.0"
     gridtolerance="10000"
     guidetolerance="10"
     objecttolerance="10"
     inkscape:pageopacity="0.0"
     inkscape:pageshadow="2"
     inkscape:zoom="0.5"
     inkscape:cx="299.91824"
     inkscape:cy="530.38228"
     inkscape:document-units="px"
     inkscape:current-layer="layer1"
     inkscape:window-width="872"
     inkscape:window-height="622"
     inkscape:window-x="5"
     inkscape:window-y="49" />
  <metadata
     id="metadata7677">
    <rdf:RDF>
      <cc:Work
         rdf:about="">
        <dc:format>image/svg+xml</dc:format>
        <dc:type
           rdf:resource="http://purl.org/dc/dcmitype/StillImage" />
      </cc:Work>
    </rdf:RDF>
  </metadata>
  <g
     inkscape:label="Layer 1"
     inkscape:groupmode="layer"
     id="layer1">
    <g
       id="g7648"
       transform="matrix(3.3040075,0,0,3.3040075,266.13263,4112.5617)">
      <g
         transform="translate(-0.2921009,0)"
         id="g7633">
        <rect
           style="stroke-linejoin:round"
           id="rect5777"
           width="58.5"
           height="42.5"
           x="-0.85040498"
           y="-1148.5"
           rx="8"
           ry="8" />
        <g
           id="g5828"
           transform="translate(-3.1003897,-0.5)">
          <g
             id="g7628">
            <rect
               style="fill:#ffffff;stroke-linejoin:round"
               id="rect5812"
               width="29.5"
               height="5"
               x="16.749985"
               y="-1139"
               rx="0"
               ry="5" />
            <rect
               style="fill:#ffffff;stroke-linejoin:round"
               id="rect5824"
               width="29.5"
               height="5"
               x="16.749985"
               y="-1129.5"
               rx="0"
               ry="5" />
            <rect
               style="fill:#ffffff;stroke-linejoin:round"
               id="rect5826"
               width="29.5"
               height="5"
               x="16.749985"
               y="-1120"
               rx="0"
               ry="5" />
          </g>
        </g>
        <g
           id="g7588"
           transform="translate(0,-0.3535534)">
          <g
             id="g7548">
            <rect
               transform="matrix(1,0,0.4369817,0.8994704,0,0)"
               ry="6.6787744"
               rx="7.2762675"
               y="-1227.1001"
               x="557.5658"
               height="22.791191"
               width="36.413803"
               id="rect5840"
               style="stroke-linejoin:round" />
            <rect
               style="fill:#000000;stroke-linejoin:round"
               id="rect7516"
               width="31.1127"
               height="9.5460663"
               x="14.849243"
               y="-1092.7863"
               rx="0"
               ry="0" />
          </g>
          <g
             transform="matrix(-1,0,0,1,56.79919,0)"
             id="g7582">
            <rect
               transform="matrix(1,0,0.4369817,0.8994704,0,0)"
               ry="6.6787744"
               rx="7.2762675"
               y="-1227.1001"
               x="557.5658"
               height="22.791191"
               width="36.413803"
               id="rect7584"
               style="stroke-linejoin:round" />
            <rect
               style="fill:#000000;stroke-linejoin:round"
               id="rect7586"
               width="31.1127"
               height="9.5460663"
               x="14.849243"
               y="-1092.7863"
               rx="0"
               ry="0" />
          </g>
        </g>
      </g>
      <g
         transform="translate(-29.698485,-2.4748737)"
         id="g7602">
        <path
           sodipodi:type="arc"
           style="fill:#000000;stroke-linejoin:round"
           id="path7596"
           sodipodi:cx="-25.279068"
           sodipodi:cy="-1126.0172"
           sodipodi:rx="6.5407376"
           sodipodi:ry="6.5407376"
           d="M -18.73833 -1126.0172 A 6.5407376 6.5407376 0 1 1  -31.819806,-1126.0172 A 6.5407376 6.5407376 0 1 1  -18.73833 -1126.0172 z"
           transform="translate(42.514796,2.2981308)" />
        <path
           sodipodi:type="arc"
           style="fill:#000000;stroke-linejoin:round"
           id="path7598"
           sodipodi:cx="-25.279068"
           sodipodi:cy="-1126.0172"
           sodipodi:rx="6.5407376"
           sodipodi:ry="6.5407376"
           d="M -18.73833 -1126.0172 A 6.5407376 6.5407376 0 1 1  -31.819806,-1126.0172 A 6.5407376 6.5407376 0 1 1  -18.73833 -1126.0172 z"
           transform="translate(22.450641,2.2981308)"
           inkscape:transform-center-x="-18.73833" />
        <path
           sodipodi:type="arc"
           style="fill:#000000;stroke-linejoin:round"
           id="path7600"
           sodipodi:cx="-25.279068"
           sodipodi:cy="-1126.0172"
           sodipodi:rx="6.5407376"
           sodipodi:ry="6.5407376"
           d="M -18.73833 -1126.0172 A 6.5407376 6.5407376 0 1 1  -31.819806,-1126.0172 A 6.5407376 6.5407376 0 1 1  -18.73833 -1126.0172 z"
           transform="translate(2.3864859,2.2981308)"
           inkscape:transform-center-x="-25.455844" />
      </g>
      <g
         transform="translate(91.570328,-2.1213203)"
         id="g7607">
        <path
           sodipodi:type="arc"
           style="fill:#000000;stroke-linejoin:round"
           id="path7609"
           sodipodi:cx="-25.279068"
           sodipodi:cy="-1126.0172"
           sodipodi:rx="6.5407376"
           sodipodi:ry="6.5407376"
           d="M -18.73833 -1126.0172 A 6.5407376 6.5407376 0 1 1  -31.819806,-1126.0172 A 6.5407376 6.5407376 0 1 1  -18.73833 -1126.0172 z"
           transform="translate(42.514796,2.2981308)" />
        <path
           sodipodi:type="arc"
           style="fill:#000000;stroke-linejoin:round"
           id="path7611"
           sodipodi:cx="-25.279068"
           sodipodi:cy="-1126.0172"
           sodipodi:rx="6.5407376"
           sodipodi:ry="6.5407376"
           d="M -18.73833 -1126.0172 A 6.5407376 6.5407376 0 1 1  -31.819806,-1126.0172 A 6.5407376 6.5407376 0 1 1  -18.73833 -1126.0172 z"
           transform="translate(22.450641,2.2981308)"
           inkscape:transform-center-x="-18.73833" />
        <path
           sodipodi:type="arc"
           style="fill:#000000;stroke-linejoin:round"
           id="path7613"
           sodipodi:cx="-25.279068"
           sodipodi:cy="-1126.0172"
           sodipodi:rx="6.5407376"
           sodipodi:ry="6.5407376"
           d="M -18.73833 -1126.0172 A 6.5407376 6.5407376 0 1 1  -31.819806,-1126.0172 A 6.5407376 6.5407376 0 1 1  -18.73833 -1126.0172 z"
           transform="translate(2.3864859,2.2981308)"
           inkscape:transform-center-x="-25.455844" />
      </g>
    </g>
    <path
       sodipodi:type="arc"
       style="fill:#000000;stroke-linejoin:round"
       id="path7730"
       sodipodi:cx="392"
       sodipodi:cy="498.36218"
       sodipodi:rx="0"
       sodipodi:ry="14"
       d="M 392 498.36218 A 0 14 0 1 1  392,498.36218 A 0 14 0 1 1  392 498.36218 z" />
  </g>
</svg>
